<?xml version="1.0"?>
<svg xmlns="http://www.w3.org/2000/svg" viewBox="0 0 512 512" width="512" height="512"><g id="outline"><path d="M176,496H336a56.064,56.064,0,0,0,56-56V272a48.055,48.055,0,0,0-48-48H320V141.571a15.678,15.678,0,0,1,1.647-6.977l.427-.853a16.01,16.01,0,0,1,12.471-8.556,52.473,52.473,0,0,0,10.025-2.275l3.6-1.2A52.329,52.329,0,0,0,384,72a56,56,0,0,0-112,0V224H248V120a56,56,0,0,0-112,0,52.329,52.329,0,0,0,35.828,49.708l3.6,1.2a52.435,52.435,0,0,0,10.026,2.277,16.007,16.007,0,0,1,12.47,8.555l.372.744c.794,2.148,1.7,10.89,1.7,15.086V224H168a48.014,48.014,0,0,0-48,48V440A56.064,56.064,0,0,0,176,496ZM344,240a32,32,0,0,1,.825,63.98l4.609-6.913A26.427,26.427,0,0,0,327.44,256H319.6a20.047,20.047,0,0,0,.4-4V240ZM288,72a40,40,0,0,1,80,0,36.352,36.352,0,0,1-24.888,34.53l-3.6,1.2a36.354,36.354,0,0,1-6.958,1.58,31.973,31.973,0,0,0-24.79,17.275l-.427.854A31.768,31.768,0,0,0,304,141.571V224H288Zm0,168h16v12a4,4,0,0,1-4,4h-8a4,4,0,0,1-4-4Zm-40,0h24v12a20.047,20.047,0,0,0,.4,4H248Zm0,32h79.44a10.43,10.43,0,0,1,8.674,16.2l-7.436,11.153A10.418,10.418,0,0,1,320,304H247.6C247.86,302.707,248,272,248,272ZM187.447,157.31a36.412,36.412,0,0,1-6.958-1.58l-3.6-1.2A36.352,36.352,0,0,1,152,120a40,40,0,0,1,80,0V272H216V197.571c0-.154-.3-16.062-3.336-22.132l-.427-.854A31.973,31.973,0,0,0,187.447,157.31ZM232,288v12a4,4,0,0,1-4,4h-8a4,4,0,0,1-4-4V288Zm-31.6,16H192a10.415,10.415,0,0,1-8.674-4.638L175.9,288.218a10.467,10.467,0,0,1-1.757-5.8A10.436,10.436,0,0,1,184.56,272H200S200.14,302.707,200.4,304Zm-55.026-54.623A31.787,31.787,0,0,1,168,240h32v16H184.56a26.426,26.426,0,0,0-21.986,41.078l4.6,6.9a31.986,31.986,0,0,1-21.8-54.6ZM136,307.739A47.806,47.806,0,0,0,168,320H344a47.64,47.64,0,0,0,32-12.236V440a40.045,40.045,0,0,1-40,40H176a40.045,40.045,0,0,1-40-40Z"/><circle cx="336" cy="56" r="8"/><path d="M312,88a8,8,0,0,0,8-8V64a8,8,0,0,0-16,0V80A8,8,0,0,0,312,88Z"/><circle cx="184" cy="104" r="8"/><path d="M216,128V112a8,8,0,0,0-16,0v16a8,8,0,0,0,16,0Z"/><path d="M302.343,387.2l11.314-11.314a81.632,81.632,0,0,0-115.314,0L209.657,387.2A65.612,65.612,0,0,1,302.343,387.2Z"/><path d="M218.343,395.882,229.657,407.2a37.254,37.254,0,0,1,52.686,0l11.314-11.314a53.255,53.255,0,0,0-75.314,0Z"/><path d="M239.029,416.569l11.315,11.313a8,8,0,0,1,11.313,0l11.314-11.313a24,24,0,0,0-33.942,0Z"/><path d="M332,464a28.032,28.032,0,0,0,28-28V384a8,8,0,0,0-16,0v52a12.013,12.013,0,0,1-12,12,8,8,0,0,0,0,16Z"/><path d="M352,360a8,8,0,0,0,8-8v-8a8,8,0,0,0-16,0v8A8,8,0,0,0,352,360Z"/></g></svg>
