<svg height="480pt" viewBox="0 -128 480 480" width="480pt" xmlns="http://www.w3.org/2000/svg"><path d="m40 40h368v144h-368zm0 0" fill="#78b9eb"/><path d="m440 56h32v112h-32zm0 0" fill="#78b9eb"/><g fill="#1a6fb0"><path d="m40 192h368c4.417969 0 8-3.582031 8-8v-144c0-4.417969-3.582031-8-8-8h-368c-4.417969 0-8 3.582031-8 8v144c0 4.417969 3.582031 8 8 8zm8-144h352v128h-352zm0 0"/><path d="m472 48h-24v-40c0-4.417969-3.582031-8-8-8h-432c-4.417969 0-8 3.582031-8 8v208c0 4.417969 3.582031 8 8 8h432c4.417969 0 8-3.582031 8-8v-40h24c4.417969 0 8-3.582031 8-8v-112c0-4.417969-3.582031-8-8-8zm-40 160h-416v-192h416zm32-48h-16v-96h16zm0 0"/></g></svg>