<svg id="Capa_1" enable-background="new 0 0 512 512" height="512" viewBox="0 0 512 512" width="512" xmlns="http://www.w3.org/2000/svg"><g><path d="m205.536 212.471h30v30h-30z" transform="matrix(.707 -.707 .707 .707 -96.253 222.567)"/><path d="m205.18 340.636h30v30h-30z" transform="matrix(.707 -.707 .707 .707 -186.983 259.854)"/><path d="m150.919 276.475h140.202v30h-140.202z"/><path d="m451.74 150.359c4.635-20.412.668-41.303-10.617-58.27l70.877-70.876-21.213-21.213-70.876 70.876c-16.966-11.285-37.858-15.252-58.27-10.617-34.172 7.992-67.967 6.889-100.052-1.475l-261.589 261.59 191.626 191.626 261.589-261.59c-8.36-31.985-9.439-66.082-1.475-100.051zm-94.67 4.571c5.897 5.897 5.897 15.493 0 21.39s-15.493 5.897-21.39 0-5.897-15.493 0-21.39c5.897-5.898 15.493-5.898 21.39 0zm-165.444 314.643-149.2-149.2 228.743-228.741c31.271 6.133 63.907 5.424 97.117-2.117 10.198-2.316 20.588-1.051 29.664 3.323l-32.092 32.092c-16.777-8.012-37.514-5.089-51.39 8.787-17.594 17.594-17.594 46.222 0 63.816s46.222 17.594 63.816 0c13.876-13.877 16.799-34.613 8.787-51.39l32.092-32.092c4.374 9.076 5.639 19.466 3.323 29.664-7.542 33.209-8.251 65.845-2.118 97.116z"/></g></svg>