<?xml version="1.0" encoding="iso-8859-1"?>
<!-- Generator: Adobe Illustrator 19.0.0, SVG Export Plug-In . SVG Version: 6.00 Build 0)  -->
<svg version="1.1" id="Capa_1" xmlns="http://www.w3.org/2000/svg" xmlns:xlink="http://www.w3.org/1999/xlink" x="0px" y="0px"
	 viewBox="0 0 512 512" style="enable-background:new 0 0 512 512;" xml:space="preserve">
<path style="fill:#455A64;" d="M444.128,229.568L301.312,63.2c1.6-4.8,2.688-9.856,2.688-15.2c0-26.464-21.536-48-48-48
	s-48,21.536-48,48c0,5.344,1.088,10.4,2.688,15.2L67.84,229.6c-5.728,6.688-4.96,16.8,1.728,22.528C72.608,254.72,76.288,256,80,256
	c4.512,0,8.96-1.888,12.128-5.568L230.912,88.768C238.24,93.248,246.784,96,256,96s17.76-2.752,25.056-7.264L419.872,250.4
	c3.168,3.712,7.616,5.6,12.128,5.6c3.68,0,7.392-1.28,10.4-3.872C449.12,246.4,449.92,236.288,444.128,229.568z M240,48
	c0-8.832,7.168-16,16-16s16,7.168,16,16s-7.168,16-16,16S240,56.832,240,48z"/>
<path style="fill:#009688;" d="M496,224H16c-8.832,0-16,7.168-16,16v256c0,8.832,7.168,16,16,16h480c8.832,0,16-7.168,16-16V240
	C512,231.168,504.832,224,496,224z"/>
<g>
	<path style="fill:#FAFAFA;" d="M112,320c8.832,0,16-7.168,16-16s-7.168-16-16-16H80c-8.832,0-16,7.168-16,16v128
		c0,8.832,7.168,16,16,16s16-7.168,16-16v-48h16c8.832,0,16-7.168,16-16s-7.168-16-16-16H96v-32H112z"/>
	<path style="fill:#FAFAFA;" d="M336,320c8.832,0,16-7.168,16-16s-7.168-16-16-16h-32c-8.832,0-16,7.168-16,16v128
		c0,8.832,7.168,16,16,16h32c8.832,0,16-7.168,16-16s-7.168-16-16-16h-16v-32h16c8.832,0,16-7.168,16-16s-7.168-16-16-16h-16v-32
		H336z"/>
	<path style="fill:#FAFAFA;" d="M432,384c8.832,0,16-7.168,16-16s-7.168-16-16-16h-16v-32h16c8.832,0,16-7.168,16-16
		s-7.168-16-16-16h-32c-8.832,0-16,7.168-16,16v128c0,8.832,7.168,16,16,16h32c8.832,0,16-7.168,16-16s-7.168-16-16-16h-16v-32H432z
		"/>
	<path style="fill:#FAFAFA;" d="M256,336c0-26.464-21.536-48-48-48h-32c-8.832,0-16,7.168-16,16v128c0,8.832,7.168,16,16,16
		s16-7.168,16-16v-37.344l35.2,46.944c3.136,4.192,7.936,6.4,12.8,6.4c3.328,0,6.688-1.024,9.568-3.2
		c7.072-5.312,8.512-15.328,3.2-22.4l-30.592-40.8C241.696,375.52,256,357.504,256,336z M208,352h-16v-32h16c8.832,0,16,7.2,16,16
		S216.832,352,208,352z"/>
</g>
<g>
</g>
<g>
</g>
<g>
</g>
<g>
</g>
<g>
</g>
<g>
</g>
<g>
</g>
<g>
</g>
<g>
</g>
<g>
</g>
<g>
</g>
<g>
</g>
<g>
</g>
<g>
</g>
<g>
</g>
</svg>
