<svg id="Layer_1" enable-background="new 0 0 512 512" height="512" viewBox="0 0 512 512" width="512" xmlns="http://www.w3.org/2000/svg"><g id="XMLID_1248_"><g id="XMLID_871_"><path id="XMLID_874_" d="m89.294 170.125h218.373c5.523 0 10-4.477 10-10s-4.477-10-10-10h-218.373c-5.523 0-10 4.477-10 10s4.477 10 10 10z"/><path id="XMLID_887_" d="m140.834 114.125h115.293c5.523 0 10-4.477 10-10s-4.477-10-10-10h-115.293c-5.523 0-10 4.477-10 10s4.477 10 10 10z"/><path id="XMLID_917_" d="m89.294 226.125h218.373c5.523 0 10-4.477 10-10s-4.477-10-10-10h-218.373c-5.523 0-10 4.477-10 10s4.477 10 10 10z"/><path id="XMLID_919_" d="m112.463 336.25c7.261 0 13.168 4.946 13.168 11.026 0 5.522 4.477 10 10 10s10-4.478 10-10c0-13.849-9.752-25.605-23.168-29.582v-1.39c0-5.522-4.477-10-10-10s-10 4.478-10 10v1.39c-13.417 3.977-23.169 15.733-23.169 29.582 0 17.108 14.879 31.027 33.169 31.027 7.261 0 13.168 4.946 13.168 11.026s-5.907 11.027-13.168 11.027-13.169-4.947-13.169-11.027c0-5.522-4.477-10-10-10s-10 4.478-10 10c0 13.849 9.752 25.606 23.169 29.583v1.39c0 5.522 4.477 10 10 10s10-4.478 10-10v-1.39c13.417-3.978 23.168-15.734 23.168-29.583 0-17.108-14.879-31.026-33.168-31.026-7.261 0-13.169-4.947-13.169-11.027s5.908-11.026 13.169-11.026z"/><path id="XMLID_920_" d="m198.48 262.125h-109.186c-5.523 0-10 4.478-10 10s4.477 10 10 10h109.186c5.523 0 10-4.478 10-10s-4.477-10-10-10z"/><path id="XMLID_1032_" d="m509.071 344.217-115.071-115.071v-219.146c0-5.523-4.477-10-10-10h-374c-5.523 0-10 4.477-10 10v492c0 5.522 4.477 10 10 10h472.404c5.523 0 10-4.478 10-10v-140.712h9.596c4.044 0 7.691-2.437 9.239-6.173 1.548-3.737.692-8.038-2.168-10.898zm-489.071-324.217h354v189.382c-1.662-1.152-3.643-1.787-5.692-1.787-2.652 0-5.196 1.054-7.071 2.929l-133.693 133.693c-2.86 2.86-3.715 7.161-2.167 10.898 1.548 3.736 5.194 6.173 9.239 6.173h9.597v130.712h-224.213zm313.308 472v-86.712h70v86.712zm139.096 0h-49.096v-96.712c0-5.522-4.477-10-10-10h-90c-5.523 0-10 4.478-10 10v96.712h-49.096v-130.712h59.096c5.523 0 10-4.478 10-10s-4.477-10-10-10h-64.551l109.55-109.551 109.55 109.551h-64.549c-5.523 0-10 4.478-10 10s4.477 10 10 10h59.095v130.712z"/><path id="XMLID_1035_" d="m368.31 341.29c-2.64 0-5.21 1.069-7.07 2.93-1.87 1.86-2.93 4.43-2.93 7.07 0 2.63 1.06 5.21 2.93 7.069 1.86 1.86 4.44 2.931 7.07 2.931s5.21-1.07 7.07-2.931c1.86-1.859 2.93-4.439 2.93-7.069s-1.07-5.21-2.93-7.07-4.44-2.93-7.07-2.93z"/></g></g></svg>