<svg id="Capa_1" enable-background="new 0 0 512.019 512.019" height="512" viewBox="0 0 512.019 512.019" width="512" xmlns="http://www.w3.org/2000/svg"><g><path d="m335.51 311.31v-120.376c0-5.523-4.478-10-10-10h-8.469l-.145-86.524c0-.065-.001-.128-.002-.192.549-6.249-.351-13.244-2.734-20.751-4.601-14.487-14.41-29.742-27.622-42.955-13.213-13.212-28.468-23.022-42.955-27.621-16.73-5.313-30.921-3.256-39.962 5.786-5.334 5.333-8.236 12.459-8.63 20.84-.01.15-.016.302-.019.454-.036.993-.037 2.004-.003 3.031v147.932h-8.46c-5.523 0-10 4.477-10 10v120.376c-5.349.197-9.625 4.595-9.625 9.992v155.165c0 19.604 15.948 35.552 35.552 35.552h107.146c19.604 0 35.552-15.948 35.552-35.552v-155.165c.001-5.397-4.276-9.795-9.624-9.992zm-139-110.376h119v110.368h-119zm30.029-180.912c3.189 0 6.928.641 10.992 1.931 11.326 3.596 24.033 11.87 34.864 22.701s19.105 23.539 22.702 34.865c2.853 8.984 2.528 16.374-.866 19.768-3.394 3.395-10.785 3.719-19.768.866-11.326-3.596-24.034-11.87-34.866-22.702-10.831-10.831-19.105-23.539-22.701-34.864-1.236-3.895-1.875-7.489-1.927-10.589v-.805c.063-3.671.999-6.581 2.794-8.375 1.859-1.858 4.915-2.796 8.776-2.796zm-11.569 59.765c3.187 4.059 6.696 8.017 10.486 11.807 13.213 13.212 28.468 23.022 42.955 27.622 6.089 1.933 11.839 2.89 17.13 2.89 4.096 0 7.916-.575 11.4-1.715.031 18.112.07 41.964.1 60.543h-82.071zm110.165 396.68c0 8.575-6.977 15.552-15.552 15.552h-107.147c-8.575 0-15.552-6.977-15.552-15.552v-145.165h138.25v145.165z"/><path d="m217.541 383.232h76.936c5.522 0 10-4.477 10-10s-4.478-10-10-10h-76.936c-5.523 0-10 4.477-10 10s4.477 10 10 10z"/></g></svg>