<svg id="Capa_1" enable-background="new 0 0 512 512" height="512" viewBox="0 0 512 512" width="512" xmlns="http://www.w3.org/2000/svg"><g><path d="m403.335 430.939c-17.067-19.591-34.901-42.129-53.005-66.988-2.443-3.354-7.143-4.094-10.499-1.65-3.355 2.443-4.094 7.144-1.65 10.499 17.148 23.546 34.075 45.059 50.373 64.026l-30.215 54.594c-30.832-36.424-64.385-82.671-93.516-128.956 10.574-17.121 20.863-34.725 30.505-52.408 8.174 12.766 16.656 25.523 25.327 38.054 5.47 8.112 18.013-.631 12.36-8.552-10.186-14.72-20.101-29.754-29.553-44.742 26.322-50.413 46.527-100.512 52.142-140.895 8.458-60.829-5.967-108.659-40.615-134.679-.03-.023-.064-.038-.094-.06-16.745-12.548-37.106-19.182-58.895-19.182-21.787 0-42.147 6.633-58.89 19.178-.032.023-.067.039-.098.063-34.648 26.02-49.073 73.85-40.615 134.679.572 4.111 4.366 6.98 8.479 6.409 4.111-.572 6.98-4.368 6.409-8.479-6.355-45.707 1.027-82.943 20.85-107.218-.485 12.761.266 26.36 2.252 40.646 5.174 37.217 23.531 86.582 53.121 142.94-5.383 10.02-11.26 20.532-17.689 31.569-3.911 6.713-7.949 13.468-12.084 20.234-19.085-37.465-32.696-70.954-40.47-99.662-1.085-4.006-5.209-6.377-9.218-5.289-4.006 1.085-6.374 5.212-5.29 9.218 8.6 31.761 23.996 68.965 45.739 110.609-31.2 49.424-67.065 98.431-99.831 136.042-2.076 2.383-2.439 5.81-.909 8.575l37.989 68.642c2.327 4.488 9.016 5.207 12.242 1.297 13.386-15.366 27.381-32.701 41.596-51.522 2.502-3.312 1.845-8.025-1.468-10.526-3.311-2.501-8.025-1.844-10.526 1.468-11.538 15.277-22.919 29.548-33.928 42.547l-30.215-54.596c40.231-46.835 84.584-109.777 119.359-169.473 29.656-50.91 66.709-123.823 74.808-182.074 1.986-14.286 2.737-27.885 2.252-40.646 19.823 24.275 27.205 61.511 20.85 107.218-10.673 76.76-76.953 191.326-135.423 272.947-2.417 3.374-1.641 8.069 1.733 10.486 3.373 2.417 8.069 1.641 10.486-1.733 12.665-17.679 25.691-36.902 38.46-56.971 30.861 48.392 66.2 96.326 98.04 132.875 3.227 3.91 9.915 3.19 12.242-1.297l37.989-68.642c1.532-2.765 1.169-6.192-.907-8.575zm-99.831-401.44c1.829 13.408 1.95 28.156.378 43.98-14.655-6.289-30.998-9.587-47.881-9.587-16.884 0-33.227 3.297-47.881 9.587-1.572-15.825-1.452-30.572.378-43.98 13.661-9.473 30.015-14.469 47.502-14.469s33.841 4.996 47.504 14.469zm-93.314 59.552c13.73-6.633 29.45-10.128 45.81-10.128 16.362 0 32.084 3.497 45.816 10.131-4.345 25.354-16.174 64.979-45.791 122.921-24.498-48.037-40.216-90.176-45.835-122.924z"/></g></svg>